<svg xmlns="http://www.w3.org/2000/svg" viewBox="0 0 600 600">
  <defs>
    <linearGradient id="auroraSky" x1="0%" y1="0%" x2="0%" y2="100%">
      <stop offset="0%" style="stop-color:#0c1445;stop-opacity:1" />
      <stop offset="100%" style="stop-color:#1e293b;stop-opacity:1" />
    </linearGradient>
    <linearGradient id="auroraGreen" x1="0%" y1="0%" x2="0%" y2="100%">
      <stop offset="0%" style="stop-color:#51cf66;stop-opacity:0.7" />
      <stop offset="50%" style="stop-color:#51cf66;stop-opacity:0.4" />
      <stop offset="100%" style="stop-color:#51cf66;stop-opacity:0" />
    </linearGradient>
    <linearGradient id="auroraBlue" x1="0%" y1="0%" x2="0%" y2="100%">
      <stop offset="0%" style="stop-color:#4dabf7;stop-opacity:0.6" />
      <stop offset="50%" style="stop-color:#4dabf7;stop-opacity:0.3" />
      <stop offset="100%" style="stop-color:#4dabf7;stop-opacity:0" />
    </linearGradient>
  </defs>
  
  <rect width="600" height="600" fill="url(#auroraSky)"/>
  
  <circle cx="100" cy="80" r="1.5" fill="white" opacity="0.8"/>
  <circle cx="200" cy="60" r="1" fill="white" opacity="0.9"/>
  <circle cx="400" cy="90" r="1.5" fill="white" opacity="0.7"/>
  <circle cx="520" cy="110" r="1" fill="white" opacity="0.8"/>
  
  <ellipse cx="300" cy="250" rx="200" ry="100" fill="url(#auroraGreen)"/>
  <ellipse cx="300" cy="300" rx="180" ry="120" fill="url(#auroraBlue)"/>
  <ellipse cx="300" cy="320" rx="210" ry="80" fill="url(#auroraGreen)"/>
  <ellipse cx="300" cy="350" rx="190" ry="100" fill="url(#auroraBlue)"/>
  
  <path d="M 0 520 Q 150 500 300 520 T 600 540 L 600 600 L 0 600 Z" fill="#1e293b" opacity="0.8"/>
  <path d="M 0 550 Q 200 530 400 550 T 600 570 L 600 600 L 0 600 Z" fill="#0f172a" opacity="0.9"/>
</svg>
