<svg xmlns="http://www.w3.org/2000/svg" viewBox="0 0 600 600">
  <defs>
    <radialGradient id="galaxyCore" cx="50%" cy="50%" r="50%">
      <stop offset="0%" style="stop-color:#7950f2;stop-opacity:1" />
      <stop offset="40%" style="stop-color:#5f3dc4;stop-opacity:0.9" />
      <stop offset="70%" style="stop-color:#4c1d95;stop-opacity:0.6" />
      <stop offset="100%" style="stop-color:#1a1a2e;stop-opacity:0.3" />
    </radialGradient>
    <radialGradient id="galaxyGlow" cx="50%" cy="50%" r="50%">
      <stop offset="0%" style="stop-color:#9775fa;stop-opacity:0.8" />
      <stop offset="100%" style="stop-color:#5f3dc4;stop-opacity:0" />
    </radialGradient>
  </defs>
  
  <rect width="600" height="600" fill="#0a0a1e"/>
  
  <ellipse cx="300" cy="300" rx="180" ry="140" fill="url(#galaxyCore)" opacity="0.9"/>
  <ellipse cx="300" cy="300" rx="200" ry="160" fill="url(#galaxyGlow)"/>
  
  <ellipse cx="300" cy="300" rx="140" ry="100" fill="#7950f2" opacity="0.6" transform="rotate(30 300 300)"/>
  <ellipse cx="300" cy="300" rx="140" ry="100" fill="#7950f2" opacity="0.5" transform="rotate(-30 300 300)"/>
  
  <circle cx="100" cy="100" r="2" fill="white" opacity="0.9"/>
  <circle cx="200" cy="80" r="1.5" fill="white" opacity="0.8"/>
  <circle cx="420" cy="110" r="2.5" fill="white" opacity="0.9"/>
  <circle cx="500" cy="150" r="1.5" fill="white" opacity="0.8"/>
  <circle cx="280" cy="180" r="2" fill="white" opacity="0.9"/>
  <circle cx="480" cy="220" r="1.5" fill="white" opacity="0.7"/>
  <circle cx="110" cy="440" r="2" fill="white" opacity="0.9"/>
  <circle cx="490" cy="480" r="2.5" fill="white" opacity="0.8"/>
  <circle cx="150" cy="520" r="1.5" fill="white" opacity="0.9"/>
  <circle cx="430" cy="540" r="2" fill="white" opacity="0.8"/>
  
  <circle cx="180" cy="240" r="1" fill="#9775fa" opacity="0.8"/>
  <circle cx="400" cy="270" r="1.5" fill="#9775fa" opacity="0.7"/>
  <circle cx="210" cy="360" r="1" fill="#9775fa" opacity="0.8"/>
  <circle cx="380" cy="390" r="1.5" fill="#9775fa" opacity="0.7"/>
</svg>
