<svg xmlns="http://www.w3.org/2000/svg" viewBox="0 0 600 600">
  <defs>
    <radialGradient id="nebulaCore" cx="50%" cy="50%" r="50%">
      <stop offset="0%" style="stop-color:#ff6b6b;stop-opacity:1" />
      <stop offset="25%" style="stop-color:#fa5252;stop-opacity:0.9" />
      <stop offset="50%" style="stop-color:#cc5de8;stop-opacity:0.8" />
      <stop offset="75%" style="stop-color:#7950f2;stop-opacity:0.6" />
      <stop offset="100%" style="stop-color:#1a1a2e;stop-opacity:0.3" />
    </radialGradient>
    <radialGradient id="nebulaGlow1" cx="50%" cy="50%" r="50%">
      <stop offset="0%" style="stop-color:#ff6b6b;stop-opacity:0.7" />
      <stop offset="100%" style="stop-color:#ff6b6b;stop-opacity:0" />
    </radialGradient>
    <radialGradient id="nebulaGlow2" cx="50%" cy="50%" r="50%">
      <stop offset="0%" style="stop-color:#da77f2;stop-opacity:0.7" />
      <stop offset="100%" style="stop-color:#7950f2;stop-opacity:0" />
    </radialGradient>
  </defs>
  
  <rect width="600" height="600" fill="#0a0a1e"/>
  
  <ellipse cx="300" cy="300" rx="190" ry="160" fill="url(#nebulaCore)" opacity="0.95"/>
  
  <ellipse cx="220" cy="260" rx="120" ry="100" fill="url(#nebulaGlow1)"/>
  <ellipse cx="380" cy="340" rx="130" ry="110" fill="url(#nebulaGlow2)"/>
  
  <ellipse cx="300" cy="280" rx="100" ry="80" fill="#ff8787" opacity="0.6"/>
  <ellipse cx="300" cy="320" rx="110" ry="85" fill="#e599f7" opacity="0.5"/>
  
  <circle cx="90" cy="100" r="2" fill="white" opacity="0.9"/>
  <circle cx="180" cy="70" r="1.5" fill="white" opacity="0.8"/>
  <circle cx="430" cy="90" r="2.5" fill="white" opacity="0.9"/>
  <circle cx="510" cy="130" r="1.5" fill="white" opacity="0.8"/>
  <circle cx="240" cy="150" r="2" fill="white" opacity="0.9"/>
  <circle cx="470" cy="180" r="1.5" fill="white" opacity="0.7"/>
  <circle cx="100" cy="460" r="2" fill="white" opacity="0.9"/>
  <circle cx="490" cy="500" r="2.5" fill="white" opacity="0.8"/>
  <circle cx="140" cy="540" r="1.5" fill="white" opacity="0.9"/>
  <circle cx="450" cy="560" r="2" fill="white" opacity="0.8"/>
  
  <circle cx="160" cy="210" r="1" fill="#ffc9c9" opacity="0.9"/>
  <circle cx="410" cy="240" r="1.5" fill="#ffc9c9" opacity="0.8"/>
  <circle cx="200" cy="380" r="1" fill="#e5dbff" opacity="0.9"/>
  <circle cx="400" cy="410" r="1.5" fill="#e5dbff" opacity="0.8"/>
</svg>
