<svg xmlns="http://www.w3.org/2000/svg" viewBox="0 0 600 600">
  <defs>
    <linearGradient id="oceanGradient" x1="0%" y1="0%" x2="0%" y2="100%">
      <stop offset="0%" style="stop-color:#4fc3f7;stop-opacity:1" />
      <stop offset="100%" style="stop-color:#0277bd;stop-opacity:1" />
    </linearGradient>
  </defs>
  
  <rect width="600" height="600" fill="url(#oceanGradient)"/>
  
  <path d="M 0 200 Q 150 180 300 200 T 600 200 L 600 220 Q 450 240 300 220 T 0 220 Z" fill="#29b6f6" opacity="0.6"/>
  
  <path d="M 0 280 Q 150 260 300 280 T 600 280 L 600 300 Q 450 320 300 300 T 0 300 Z" fill="#039be5" opacity="0.6"/>
  
  <path d="M 0 360 Q 150 340 300 360 T 600 360 L 600 380 Q 450 400 300 380 T 0 380 Z" fill="#0288d1" opacity="0.6"/>
  
  <path d="M 0 440 Q 150 420 300 440 T 600 440 L 600 460 Q 450 480 300 460 T 0 460 Z" fill="#0277bd" opacity="0.6"/>
  
  <circle cx="120" cy="150" r="4" fill="white" opacity="0.6"/>
  <circle cx="280" cy="120" r="5" fill="white" opacity="0.5"/>
  <circle cx="450" cy="180" r="4" fill="white" opacity="0.6"/>
  <circle cx="350" cy="250" r="3" fill="white" opacity="0.5"/>
  <circle cx="180" cy="320" r="4" fill="white" opacity="0.6"/>
  <circle cx="500" cy="300" r="3" fill="white" opacity="0.5"/>
</svg>
