<svg xmlns="http://www.w3.org/2000/svg" viewBox="0 0 600 600">
  <defs>
    <linearGradient id="portalSky" x1="0%" y1="0%" x2="0%" y2="100%">
      <stop offset="0%" style="stop-color:#1e293b;stop-opacity:1" />
      <stop offset="100%" style="stop-color:#4c1d95;stop-opacity:1" />
    </linearGradient>
    <radialGradient id="portalCore" cx="50%" cy="50%" r="50%">
      <stop offset="0%" style="stop-color:#da77f2;stop-opacity:1" />
      <stop offset="40%" style="stop-color:#9c36b5;stop-opacity:0.8" />
      <stop offset="100%" style="stop-color:#1a1a2e;stop-opacity:0.2" />
    </radialGradient>
    <radialGradient id="portalGlow" cx="50%" cy="50%" r="50%">
      <stop offset="0%" style="stop-color:#e9d5ff;stop-opacity:0.6" />
      <stop offset="100%" style="stop-color:#7c3aed;stop-opacity:0" />
    </radialGradient>
  </defs>
  
  <rect width="600" height="600" fill="url(#portalSky)"/>
  
  <ellipse cx="300" cy="300" rx="150" ry="180" fill="url(#portalCore)" opacity="0.9"/>
  <ellipse cx="300" cy="300" rx="120" ry="150" fill="#a855f7" opacity="0.7"/>
  <ellipse cx="300" cy="300" rx="90" ry="120" fill="#c084fc" opacity="0.6"/>
  <ellipse cx="300" cy="300" rx="60" ry="80" fill="#e9d5ff" opacity="0.8"/>
  <ellipse cx="300" cy="300" rx="170" ry="200" fill="url(#portalGlow)"/>
  
  <circle cx="140" cy="180" r="3" fill="#e9d5ff" opacity="0.9"/>
  <circle cx="450" cy="210" r="4" fill="#e9d5ff" opacity="0.8"/>
  <circle cx="100" cy="300" r="2.5" fill="#e9d5ff" opacity="0.9"/>
  <circle cx="500" cy="320" r="3.5" fill="#e9d5ff" opacity="0.8"/>
  <circle cx="180" cy="440" r="3" fill="#e9d5ff" opacity="0.9"/>
  <circle cx="420" cy="420" r="4" fill="#e9d5ff" opacity="0.8"/>
  
  <path d="M 0 540 Q 200 520 400 540 T 600 560 L 600 600 L 0 600 Z" fill="#1e293b" opacity="0.5"/>
</svg>
